<?xml version="1.0" standalone="no"?>
<!DOCTYPE svg PUBLIC "-//W3C//DTD SVG 20010904//EN"
 "http://www.w3.org/TR/2001/REC-SVG-20010904/DTD/svg10.dtd">
<svg version="1.0" xmlns="http://www.w3.org/2000/svg"
 width="952.000000pt" height="952.000000pt" viewBox="0 0 952.000000 952.000000"
 preserveAspectRatio="xMidYMid meet">
<metadata>
Created by potrace 1.14, written by Peter Selinger 2001-2017
</metadata>
<g transform="translate(0.000000,952.000000) scale(0.100000,-0.100000)"
fill="#000000" stroke="none">
<path d="M2809 9246 c-2 -2 -58 -7 -123 -10 -118 -7 -151 -10 -256 -22 -72 -8
-95 -11 -95 -13 0 -1 -22 -4 -50 -6 -76 -7 -107 -11 -145 -20 -19 -4 -44 -9
-55 -10 -11 -1 -31 -5 -45 -8 -25 -7 -52 -12 -120 -23 -19 -3 -66 -12 -105
-21 -38 -8 -79 -16 -90 -18 -69 -13 -109 -22 -170 -37 l-50 -13 -2 -1900 c-1
-1045 -2 -1907 -2 -1916 -1 -9 -7 -16 -13 -16 -21 0 -158 -43 -218 -68 -55
-22 -93 -36 -97 -36 -1 0 -58 -29 -127 -63 -264 -136 -424 -265 -651 -528 -69
-81 -204 -317 -255 -448 -41 -103 -104 -329 -95 -338 3 -3 0 -11 -6 -19 -6 -7
-9 -13 -7 -13 3 0 1 -21 -3 -47 -25 -132 -33 -476 -15 -628 5 -38 10 -88 12
-110 1 -22 3 -40 4 -40 2 0 9 -36 14 -71 3 -17 14 -68 26 -115 12 -46 24 -95
26 -108 3 -14 8 -29 12 -35 3 -6 7 -15 7 -21 0 -20 80 -250 88 -253 4 -2 7
-10 7 -17 0 -7 10 -35 22 -62 11 -26 22 -54 24 -61 5 -25 180 -370 241 -476
35 -60 63 -113 63 -117 0 -5 4 -9 9 -9 5 0 14 -14 21 -30 7 -17 16 -30 21 -30
5 0 9 -5 9 -11 0 -22 176 -266 292 -405 75 -91 276 -282 405 -386 87 -69 267
-179 389 -237 137 -66 373 -141 442 -141 16 0 32 -3 35 -7 11 -11 116 -18 272
-17 165 0 248 8 335 31 14 3 27 7 30 8 3 0 23 4 45 9 162 32 473 163 647 273
21 12 42 23 47 23 5 0 11 3 13 8 2 4 43 33 91 66 l88 58 211 0 c116 -1 213 -3
215 -6 3 -3 15 -1 28 4 13 5 25 7 27 5 5 -5 81 -6 312 -5 104 0 191 -1 193 -4
3 -3 15 -1 27 4 13 4 29 4 36 0 9 -5 19 -5 27 1 7 7 18 7 30 1 10 -5 26 -7 35
-3 9 3 103 4 208 1 106 -3 193 -3 195 0 2 3 56 3 120 0 64 -3 119 -2 122 3 2
4 9 5 14 2 5 -3 163 -5 351 -5 189 1 352 1 363 0 98 -5 235 -3 235 3 0 5 5 5
11 2 14 -9 1573 -10 1587 -1 7 4 12 4 12 -1 0 -6 1366 -10 1401 -4 6 1 2 2994
-5 3159 -2 57 -6 106 -10 109 -3 3 -1 14 5 24 5 11 6 19 1 19 -4 0 -8 15 -8
33 0 17 -4 57 -8 87 -4 30 -9 73 -11 95 -2 22 -11 78 -20 125 -9 47 -18 96
-20 110 -7 45 -26 123 -32 134 -4 6 -8 17 -9 26 -6 56 -144 350 -174 370 -4 3
-18 23 -32 45 -45 70 -218 235 -247 235 -6 0 -11 4 -11 8 0 24 -304 163 -390
178 -8 2 -37 8 -65 14 -27 7 -61 14 -75 16 -51 8 -106 16 -140 19 -19 2 -35 4
-35 5 0 1 -86 6 -225 11 -33 2 -236 -10 -260 -15 -14 -3 -43 -7 -65 -10 -47
-6 -94 -15 -117 -22 -9 -3 -25 -7 -35 -9 -114 -24 -292 -78 -382 -117 -24 -10
-46 -16 -49 -13 -3 3 -6 501 -7 1108 -1 606 -3 1102 -4 1102 -1 0 -4 43 -7 95
-2 52 -6 109 -8 125 -2 17 -7 59 -11 95 -4 36 -9 74 -11 85 -5 26 -17 116 -17
133 0 6 -4 12 -9 12 -5 0 -6 4 -3 10 6 9 -41 214 -53 235 -4 6 -7 16 -8 23 -4
21 -47 123 -80 187 -27 53 -59 104 -121 195 -36 53 -177 183 -250 231 -84 55
-196 111 -283 141 -83 29 -241 68 -251 62 -5 -3 -9 -2 -9 3 0 4 -13 9 -30 10
-16 0 -47 2 -67 3 -21 1 -42 5 -48 8 -15 10 -414 12 -465 2 -25 -4 -65 -10
-90 -13 -25 -3 -67 -11 -95 -17 -27 -7 -61 -14 -75 -16 -14 -3 -56 -14 -95
-26 -38 -11 -80 -22 -93 -24 -84 -16 -451 -172 -494 -211 -10 -9 -18 -13 -18
-10 0 6 -93 -52 -117 -73 -22 -18 -37 -10 -105 55 -37 36 -72 65 -77 65 -5 0
-11 4 -13 8 -10 24 -177 118 -288 162 -53 21 -136 48 -169 55 -9 2 -38 9 -66
15 -27 6 -66 13 -85 15 -19 2 -51 7 -70 11 -36 7 -585 16 -591 10z m361 -650
c88 -9 104 -11 115 -18 6 -3 20 -4 33 -3 12 1 22 -3 22 -8 0 -6 3 -8 6 -5 6 7
116 -37 183 -73 53 -29 175 -146 185 -177 4 -12 12 -22 17 -22 5 0 9 -9 9 -20
0 -11 4 -20 9 -20 24 0 114 -257 127 -365 1 -11 3 -20 4 -20 6 0 31 -208 35
-297 2 -48 5 -91 8 -95 2 -5 4 -1294 5 -2866 l1 -2857 -49 -73 c-27 -39 -59
-84 -72 -98 -13 -15 -35 -42 -50 -61 -41 -52 -167 -178 -224 -223 -27 -21 -51
-42 -54 -45 -3 -3 -25 -19 -50 -35 -25 -17 -54 -38 -64 -48 -11 -9 -23 -17
-27 -17 -4 0 -31 -16 -61 -35 -202 -134 -500 -226 -730 -225 -110 0 -161 6
-248 26 -14 4 -34 7 -45 9 -11 1 -31 7 -45 13 -14 5 -28 8 -32 5 -5 -2 -8 1
-8 7 0 6 -4 9 -9 5 -5 -3 -12 -1 -16 5 -3 5 -12 10 -20 10 -22 0 -244 109
-265 130 -15 15 -71 50 -80 50 -5 0 -10 3 -10 8 0 4 -11 14 -24 22 -32 20
-108 84 -172 146 -30 28 -54 49 -54 46 0 -2 -10 8 -22 24 -13 16 -36 43 -53
60 -38 39 -97 111 -109 133 -5 9 -12 18 -16 21 -3 3 -17 21 -30 40 -14 19 -29
41 -35 48 -35 44 -20 20 -136 212 -70 115 -249 456 -249 474 0 4 -9 25 -19 49
-45 101 -102 266 -135 392 -24 89 -31 121 -42 200 -3 22 -7 51 -10 65 -11 66
-17 155 -17 260 -1 112 9 266 17 279 3 4 7 25 10 46 8 65 15 90 47 182 33 94
117 263 131 263 4 0 8 5 8 11 0 10 32 57 75 108 63 75 230 221 254 221 6 0 11
4 11 9 0 5 8 11 17 14 10 4 36 18 58 32 22 13 47 28 55 31 8 4 33 15 55 24 88
39 123 52 205 76 47 14 95 27 108 30 65 12 80 15 112 20 19 2 46 7 60 9 49 10
187 18 318 19 l132 1 -5 25 c-3 14 -7 41 -9 60 -3 19 -7 49 -10 65 -3 17 -7
50 -10 75 -5 45 -8 66 -27 188 -5 34 -12 84 -16 110 -11 90 -9 3263 3 3273 6
5 26 11 45 13 19 3 34 5 34 6 0 4 97 18 170 24 153 14 183 17 206 21 14 3 81
7 149 10 69 3 125 7 126 8 4 4 127 -1 194 -7z m2426 0 c39 -3 93 -10 120 -17
27 -6 56 -12 65 -14 24 -5 153 -57 159 -64 3 -3 17 -13 31 -21 88 -50 156
-123 213 -231 65 -122 102 -239 122 -385 3 -27 8 -58 10 -69 3 -11 7 -45 10
-75 3 -30 8 -71 11 -90 3 -19 7 -531 10 -1138 l4 -1103 -38 19 c-96 48 -312
118 -373 120 -8 0 -31 3 -50 7 -58 11 -100 15 -213 20 -59 3 -111 6 -115 6 -4
1 -10 0 -14 -1 -19 -5 -75 -3 -85 3 -6 4 -13 4 -17 0 -9 -9 -66 -9 -66 0 0 5
-6 5 -12 1 -7 -5 -51 -9 -98 -10 -115 -2 -375 -20 -430 -30 -14 -2 -50 -6 -80
-9 -30 -3 -65 -8 -77 -10 l-21 -5 0 968 c-1 855 -4 1120 -17 1267 -10 107 -14
150 -19 174 -3 14 -8 44 -11 65 -5 33 -13 73 -40 201 -3 11 -13 51 -22 89 -13
50 -15 70 -6 73 6 2 21 13 34 24 20 17 232 128 245 128 2 0 35 11 72 25 37 13
87 30 112 36 49 13 54 14 120 25 25 4 53 9 63 11 9 1 63 6 120 10 56 3 103 7
104 8 3 3 73 -1 179 -8z m13 -3690 c87 -8 162 -25 223 -50 18 -8 38 -15 43
-16 17 -4 98 -50 135 -78 47 -36 114 -107 131 -140 8 -15 17 -29 20 -32 6 -4
82 -155 79 -155 -1 0 1 -7 4 -15 39 -122 53 -177 62 -245 5 -44 12 -80 14 -80
1 0 3 -21 5 -46 2 -26 6 -66 9 -90 4 -24 9 -100 12 -169 8 -149 11 -2399 4
-2409 -3 -4 -383 -7 -846 -7 l-841 1 0 1728 c0 950 4 1730 7 1732 4 3 25 7 46
11 22 3 50 7 64 10 14 3 48 7 75 10 28 3 61 7 75 9 14 3 57 7 97 10 39 3 82 8
95 10 12 3 81 8 153 11 71 3 131 6 132 7 3 3 144 -2 202 -7z m2421 0 c63 -7
116 -15 170 -29 85 -20 217 -90 276 -145 69 -65 106 -115 152 -208 54 -109 90
-231 107 -361 2 -18 6 -48 9 -65 5 -32 12 -95 22 -203 3 -27 6 -607 8 -1288
l3 -1237 -844 1 c-463 1 -843 4 -843 8 -1 3 -1 563 -2 1244 0 730 -4 1237 -10
1237 -5 0 -4 8 1 19 6 10 9 20 7 22 -2 2 -7 38 -10 79 -7 87 -15 160 -22 210
-3 19 -7 49 -9 65 -2 17 -8 55 -14 85 -6 30 -13 69 -16 85 -3 17 -16 71 -29
122 l-24 92 24 20 c13 12 24 19 24 16 0 -2 16 7 36 20 20 14 43 25 50 25 8 0
14 4 14 9 0 8 23 20 50 26 3 1 31 13 62 28 31 15 59 27 62 27 2 0 17 5 33 12
15 6 30 12 33 13 36 11 97 29 105 31 20 5 71 14 104 20 18 3 43 8 55 10 11 3
82 7 156 11 74 3 136 6 138 8 1 1 17 1 35 -1 17 -2 57 -5 87 -8z"/>
<path d="M7388 8952 c-13 -2 -15 -12 -13 -47 3 -39 1 -44 -21 -49 -32 -8 -34
-46 -1 -46 22 0 22 -2 23 -125 0 -121 1 -127 25 -151 45 -44 171 -37 153 9 -2
7 -22 12 -49 11 -67 -2 -73 11 -72 141 l2 110 58 3 c54 3 58 5 55 25 -3 19
-10 22 -48 23 -25 1 -51 2 -57 3 -9 0 -13 18 -13 49 0 49 -3 53 -42 44z"/>
<path d="M7742 8854 c-12 -6 -32 -19 -44 -30 -19 -17 -21 -17 -15 -2 7 18 -15
35 -43 34 -13 -1 -15 -28 -16 -176 l-1 -175 28 0 c16 0 29 2 30 5 5 29 3 80
-4 80 -4 0 -5 6 -1 12 5 7 8 22 8 33 0 11 -3 26 -8 33 -4 6 -4 12 1 12 4 0 8
18 9 41 1 49 26 77 77 89 31 7 40 4 61 -17 23 -22 24 -31 25 -151 2 -127 6
-142 40 -137 14 2 16 19 17 118 2 154 21 186 105 187 52 0 63 -28 65 -168 1
-70 3 -129 3 -132 1 -4 12 -6 26 -6 29 0 27 -8 28 151 0 84 -4 119 -17 147
-18 37 -54 59 -94 58 -12 0 -31 0 -42 -1 -11 0 -20 -4 -20 -9 0 -5 -9 -11 -19
-15 -11 -3 -23 -15 -27 -27 -6 -20 -7 -19 -30 9 -33 42 -98 59 -142 37z"/>
</g>
</svg>
